<svg width="24" height="24" viewBox="0 0 24 24" fill="none" xmlns="http://www.w3.org/2000/svg">
<path d="M16.7193 10.7973C15.1726 10.7973 14.9576 12.3412 14.9576 12.3412H18.2461C18.2461 12.3412 18.2671 10.7973 16.7193 10.7973Z" fill="white"/>
<path d="M9.25835 12.3411H6.34314V15.0175H8.92404C8.9679 15.0175 9.03369 15.0185 9.11068 15.0175C9.52589 15.0078 10.3129 14.8869 10.3129 13.7164C10.3129 12.327 9.25835 12.3411 9.25835 12.3411Z" fill="white"/>
<path d="M12.0005 0C5.37281 0 0 5.37183 0 11.9995C0 18.6272 5.37281 24 12.0005 24C18.6272 24 24 18.6272 24 11.9995C24 5.37232 18.6267 0 12.0005 0ZM14.5263 7.37329H18.6574V8.60624H14.5263V7.37329V7.37329ZM12.4381 13.8411C12.4381 16.8972 9.25828 16.7963 9.25828 16.7963H6.34308H6.2578H4.04776V6.78362H6.2578H6.34308H9.25828C10.8411 6.78362 12.0906 7.65789 12.0906 9.44932C12.0906 11.2407 10.5629 11.3548 10.5629 11.3548C12.577 11.3548 12.4381 13.8411 12.4381 13.8411ZM20.1662 13.6774H14.9776C14.9776 15.537 16.7393 15.4201 16.7393 15.4201C18.403 15.4201 18.345 14.3426 18.345 14.3426H20.1077C20.1077 17.2018 16.6803 17.0058 16.6803 17.0058C12.5692 17.0058 12.8338 13.1779 12.8338 13.1779C12.8338 13.1779 12.8299 9.33138 16.6803 9.33138C20.7334 9.33138 20.1662 13.6774 20.1662 13.6774Z" fill="white"/>
<path d="M9.96643 9.60478C9.96643 8.56335 9.25834 8.56335 9.25834 8.56335H8.8831H6.34314V10.7973H9.07754C9.54928 10.7973 9.96643 10.6457 9.96643 9.60478Z" fill="white"/>
</svg>
