<svg width="24" height="24" viewBox="0 0 24 24" fill="none" xmlns="http://www.w3.org/2000/svg">
<path d="M4.4458 11.9904C4.4458 11.9972 4.4458 12.0043 4.4458 12.0116C4.4458 13.7821 5.06647 15.4875 6.19983 16.8451C6.79415 15.9217 8.8869 13.0367 12.4774 11.8762C12.5025 11.8676 12.5278 11.8595 12.5533 11.8513C12.4175 11.5524 12.2686 11.2422 12.1087 10.9249C8.70865 11.9128 5.42705 11.9908 4.49015 11.9908C4.47494 11.9904 4.45994 11.9904 4.4458 11.9904Z" fill="white"/>
<path d="M11.2531 9.33735C10.1377 7.3856 8.9934 5.75992 8.62896 5.25323C6.6519 6.24347 5.19095 8.07096 4.66455 10.2065C5.59931 10.1986 8.24225 10.1022 11.2531 9.33735Z" fill="white"/>
<path d="M16.4493 13.0018C15.9966 13.0018 15.5511 13.0303 15.1216 13.0866C15.9361 15.3782 16.3408 17.28 16.4917 18.0811C18.0225 16.9441 19.0782 15.261 19.426 13.396C18.9904 13.2747 17.8538 13.0018 16.4493 13.0018Z" fill="white"/>
<path d="M10.5471 4.59852C11.0013 5.22604 12.1175 6.82002 13.1759 8.73964C15.3809 7.87453 16.5017 6.67112 16.8573 6.23128C15.4964 5.08593 13.7799 4.45776 12.0003 4.45776C11.5106 4.45776 11.0232 4.50511 10.5471 4.59852Z" fill="white"/>
<path d="M18.0122 7.44409C17.5464 7.99577 16.2862 9.28124 13.9666 10.2721C14.1172 10.5883 14.2586 10.9005 14.388 11.203C14.4238 11.2879 14.4593 11.372 14.4942 11.4565C15.0164 11.3978 15.5717 11.368 16.1484 11.368C17.6687 11.368 18.9716 11.5709 19.546 11.6765C19.477 10.1474 18.939 8.6625 18.0122 7.44409Z" fill="white"/>
<path d="M14.7938 19.0295C14.6464 18.2139 14.204 16.068 13.2508 13.543C9.4801 14.9043 7.88954 17.3841 7.50562 18.0791C8.81337 19.0522 10.3634 19.5656 12.0003 19.5656C12.9672 19.5654 13.906 19.3852 14.7938 19.0295Z" fill="white"/>
<path d="M12.0001 0C5.38313 0 0 5.38308 0 11.9998C0 18.6167 5.38313 24 12.0001 24C18.6169 24 24 18.6167 24 11.9998C24 5.38308 18.6169 0 12.0001 0ZM12.0001 21.3085C6.86743 21.3085 2.69157 17.1324 2.69157 11.9994C2.69157 6.86694 6.86743 2.69133 12.0001 2.69133C17.1328 2.69133 21.3086 6.86694 21.3086 11.9994C21.3086 17.1324 17.1328 21.3085 12.0001 21.3085Z" fill="white"/>
</svg>
