<svg width="24" height="24" viewBox="0 0 24 24" fill="none" xmlns="http://www.w3.org/2000/svg">
<path fill-rule="evenodd" clip-rule="evenodd" d="M12 0C18.623 0 24 5.37703 24 12C24 18.623 18.623 24 12 24C5.37703 24 0 18.623 0 12C0 5.37703 5.37703 0 12 0ZM17.6966 6.32081C16.26 4.88306 14.3497 4.09092 12.3143 4.09013C8.12048 4.09013 4.70723 7.50206 4.70559 11.6959C4.70503 13.0365 5.05538 14.3451 5.72119 15.4985L4.64175 19.44L8.67525 18.3823C9.78656 18.9883 11.0378 19.3076 12.3113 19.3081H12.3144C16.5078 19.3081 19.9213 15.8958 19.923 11.7019C19.9238 9.66952 19.1331 7.75847 17.6966 6.32081ZM12.3143 18.0235H12.3118C11.177 18.023 10.064 17.7183 9.09305 17.1423L8.86209 17.0052L6.46861 17.6329L7.10747 15.3L6.95709 15.0608C6.32405 14.0543 5.98973 12.8909 5.9902 11.6963C5.99161 8.21062 8.82858 5.37473 12.3169 5.37473C14.006 5.37539 15.5938 6.03389 16.7878 7.22883C17.9818 8.42381 18.639 10.0122 18.6383 11.7015C18.6369 15.1874 15.8 18.0234 12.3143 18.0235ZM15.7832 13.2886C15.5931 13.1935 14.6584 12.7337 14.4841 12.6703C14.3099 12.6069 14.1832 12.5752 14.0564 12.7654C13.9297 12.9557 13.5653 13.3838 13.4544 13.5106C13.3435 13.6374 13.2326 13.6534 13.0425 13.5582C12.8524 13.4631 12.2398 13.2624 11.5137 12.6149C10.9485 12.111 10.5669 11.4885 10.456 11.2983C10.3452 11.108 10.4442 11.0052 10.5394 10.9104C10.6249 10.8253 10.7295 10.6884 10.8246 10.5774C10.9196 10.4664 10.9513 10.3872 11.0147 10.2604C11.0781 10.1335 11.0464 10.0225 10.9988 9.92737C10.9513 9.83227 10.5711 8.89678 10.4127 8.51625C10.2584 8.14566 10.1017 8.19581 9.98494 8.19C9.87417 8.18447 9.74733 8.1833 9.62058 8.1833C9.49383 8.1833 9.28791 8.23088 9.11358 8.42114C8.93934 8.61141 8.44823 9.0712 8.44823 10.0066C8.44823 10.9421 9.12947 11.8458 9.22453 11.9727C9.31959 12.0996 10.5651 14.0192 12.4722 14.8425C12.9258 15.0382 13.2799 15.1552 13.556 15.2428C14.0115 15.3874 14.4259 15.367 14.7535 15.3181C15.1187 15.2635 15.8783 14.8583 16.0367 14.4144C16.1951 13.9704 16.1951 13.5899 16.1476 13.5106C16.1001 13.4314 15.9733 13.3838 15.7832 13.2886Z" fill="white"/>
</svg>
